Coordinates
version=1
nRows=24
nColumns=24
inDegrees=yes

Units are S.I. units (second, meters, Newtons, ...)
Angles are in degrees.

endheader
time	pelvis_tilt	pelvis_list	pelvis_rotation	pelvis_tx	pelvis_ty	pelvis_tz	hip_flexion_r	hip_adduction_r	hip_rotation_r	knee_angle_r	ankle_angle_r	subtalar_angle_r	mtp_angle_r	hip_flexion_l	hip_adduction_l	hip_rotation_l	knee_angle_l	ankle_angle_l	subtalar_angle_l	mtp_angle_l	lumbar_extension	lumbar_bending	lumbar_rotation
      1.88783333	      2.27670888	      2.96342820	     -5.43646440	      1.45553451	      1.02188597	      0.24133548	     15.75614716	     -6.25350795	     -5.38120450	    -56.53919220	      9.60278858	    -16.54478145	     -5.10615455	      9.76897226	      8.65207858	      0.16975788	    -22.81838453	     12.28745240	    -11.43737575	     -2.11077084	     -1.21511421	     -4.73757221	      4.45488093
      1.89200000	      2.23517394	      2.92333979	     -5.30835138	      1.45967326	      1.02221281	      0.24096123	     16.33930486	     -6.12730944	     -5.34004086	    -55.93295517	      9.75245912	    -16.59795991	     -5.11808687	      9.45438191	      8.65886439	      0.30761452	    -22.63527899	     12.40068283	    -11.38984364	     -2.11670582	     -1.24895222	     -4.69266005	      4.26254793
      1.89616667	      2.20344580	      2.88183748	     -5.17117041	      1.46379785	      1.02253116	      0.24058439	     16.89805649	     -6.00623552	     -5.31207762	    -55.29460132	      9.86366353	    -16.61622337	     -5.13737587	      9.13325486	      8.66289664	      0.43782594	    -22.46025226	     12.50910189	    -11.34028712	     -2.12653855	     -1.29482200	     -4.64220351	      3.98262505
      1.90033333	      2.17114150	      2.82668049	     -5.03142148	      1.46795199	      1.02281930	      0.24021995	     17.43753075	     -5.86682889	     -5.27814219	    -54.62410686	      9.97370221	    -16.61699186	     -5.14324235	      8.81508318	      8.65343724	      0.58944685	    -22.29437857	     12.62822374	    -11.30803400	     -2.13015616	     -1.33766185	     -4.58200791	      3.83977306
      1.90450000	      2.11343687	      2.79427675	     -4.90289504	      1.47205849	      1.02302740	      0.23987837	     18.00885413	     -5.74707140	     -5.22018497	    -53.94751298	     10.04933022	    -16.58399079	     -5.14864064	      8.52751503	      8.66480798	      0.73122429	    -22.12195001	     12.72365161	    -11.28845828	     -2.14072789	     -1.35348420	     -4.54238906	      3.57600809
      1.90866667	      2.06696227	      2.74791674	     -4.78355397	      1.47621821	      1.02323325	      0.23957106	     18.54787344	     -5.60837324	     -5.15162487	    -53.23360379	     10.11738608	    -16.52825004	     -5.14739281	      8.22629316	      8.65803420	      0.85783065	    -21.95386085	     12.84047054	    -11.27616106	     -2.14130875	     -1.35826993	     -4.48970138	      3.50059725
      1.91283333	      2.00891975	      2.69555272	     -4.64118098	      1.48030985	      1.02338813	      0.23924566	     19.08792832	     -5.46602217	     -5.09607652	    -52.49632231	     10.13320547	    -16.46447334	     -5.13893514	      7.95129267	      8.65061580	      1.03694455	    -21.81339240	     12.93553123	    -11.29105850	     -2.15356953	     -1.39621848	     -4.43555996	      3.19490439
      1.91700000	      1.95073955	      2.65388222	     -4.51582566	      1.48443385	      1.02351708	      0.23895422	     19.62046061	     -5.33212427	     -5.01823529	    -51.74186774	     10.14699777	    -16.34362256	     -5.13348573	      7.67379041	      8.64956971	      1.18546748	    -21.66109625	     13.05075357	    -11.28853416	     -2.15457872	     -1.39411454	     -4.38361063	      3.12666181
      1.92116667	      1.86608521	      2.59508111	     -4.37313574	      1.48849199	      1.02356399	      0.23865315	     20.16830189	     -5.17909967	     -4.94936078	    -50.96385203	     10.13330839	    -16.21796910	     -5.11867625	      7.44796800	      8.63074270	      1.35775288	    -21.55251539	     13.14692638	    -11.33204100	     -2.15910783	     -1.40452640	     -4.31481186	      2.93729906
      1.92533333	      1.81191435	      2.54772979	     -4.24062422	      1.49262876	      1.02363100	      0.23838706	     20.66982704	     -5.03622618	     -4.85615074	    -50.17182254	     10.09874957	    -16.06730817	     -5.09908176	      7.17091611	      8.62582367	      1.53099664	    -21.41776489	     13.24696018	    -11.37817545	     -2.16364245	     -1.41901915	     -4.26479804	      2.76530348
      1.92950000	      1.73434404	      2.51545143	     -4.10629038	      1.49674735	      1.02364099	      0.23812569	     21.18656514	     -4.91214220	     -4.76375250	    -49.35805782	     10.05183033	    -15.90601586	     -5.04845911	      6.92125116	      8.63961004	      1.73499990	    -21.27689418	     13.30758374	    -11.47858663	     -2.17641111	     -1.40772155	     -4.23985768	      2.52185231
      1.93366667	      1.65938883	      2.45610986	     -3.97957741	      1.50082677	      1.02362010	      0.23789248	     21.68478508	     -4.75536329	     -4.66605760	    -48.51523447	      9.98202255	    -15.70794229	     -5.02576166	      6.69076000	      8.61572954	      1.88760567	    -21.18349163	     13.41948417	    -11.52397370	     -2.17833074	     -1.41344438	     -4.16965599	      2.43831958
      1.93783333	      1.58841066	      2.40359535	     -3.82554339	      1.50488624	      1.02357596	      0.23764469	     22.16976854	     -4.61281287	     -4.58004922	    -47.66029533	      9.88281127	    -15.51764493	     -4.99610980	      6.45459604	      8.60399817	      2.08964705	    -21.08561698	     13.51878965	    -11.58445511	     -2.18063985	     -1.42326836	     -4.11152225	      2.30306741
      1.94200000	      1.52466988	      2.36184553	     -3.70348035	      1.50901761	      1.02353294	      0.23745897	     22.63202062	     -4.47373218	     -4.46027483	    -46.78750827	      9.76632189	    -15.29871637	     -4.97661330	      6.19700421	      8.59776939	      2.24982770	    -20.96262341	     13.62317372	    -11.63471211	     -2.18086649	     -1.40726532	     -4.07381658	      2.20597353
      1.94616667	      1.44761528	      2.30061552	     -3.53568898	      1.51308547	      1.02343284	      0.23721173	     23.08533148	     -4.32797012	     -4.37774641	    -45.88498627	      9.64850705	    -15.09277879	     -4.92672713	      5.98006075	      8.58211133	      2.50052509	    -20.89376994	     13.68835647	    -11.78029051	     -2.18480162	     -1.42914470	     -4.00059796	      2.01308430
      1.95033333	      1.34789463	      2.27765890	     -3.38446142	      1.51716365	      1.02325285	      0.23699938	     23.56964715	     -4.22061645	     -4.27330182	    -44.98730581	      9.51195054	    -14.88808127	     -4.82476137	      5.77402827	      8.60559151	      2.74706830	    -20.78578113	     13.72589563	    -11.96289944	     -2.19303584	     -1.38553357	     -3.99513650	      1.76431322
      1.95450000	      1.28686197	      2.22564277	     -3.23651610	      1.52126649	      1.02314207	      0.23681472	     23.98226479	     -4.08440040	     -4.17168532	    -44.05330929	      9.35514617	    -14.63438738	     -4.77679557	      5.53521049	      8.58885711	      2.93955943	    -20.70399735	     13.82349791	    -12.04230526	     -2.19532941	     -1.41206987	     -3.93396458	      1.69673468
      1.95866667	      1.21188172	      2.18312629	     -3.07150081	      1.52535685	      1.02296236	      0.23661379	     24.40470572	     -3.96851677	     -4.08741997	    -43.11551984	      9.18903705	    -14.39143911	     -4.73314851	      5.31234462	      8.58341142	      3.15658756	    -20.62019872	     13.92421702	    -12.13081712	     -2.19616692	     -1.40830178	     -3.89582008	      1.59935290
      1.96283333	      1.13663506	      2.15253145	     -2.90640397	      1.52945785	      1.02277302	      0.23641899	     24.80851863	     -3.86225953	     -3.98470621	    -42.14700735	      9.01290485	    -14.21109783	     -4.59453615	      5.08310996	      8.60195740	      3.44592344	    -20.52694288	     13.93474345	    -12.38054421	     -2.21080265	     -1.40069401	     -3.87908229	      1.34474685
      1.96700000	      1.07278088	      2.11985819	     -2.74693660	      1.53354443	      1.02256770	      0.23625003	     25.19427986	     -3.76009142	     -3.88723274	    -41.17667678	      8.82910568	    -13.92265498	     -4.56446821	      4.85921898	      8.60006752	      3.63256847	    -20.46548866	     14.05849895	    -12.41596546	     -2.21009275	     -1.39696152	     -3.85354343	      1.30988283
      1.97116667	      0.98394921	      2.07593002	     -2.54840651	      1.53764792	      1.02230466	      0.23603495	     25.58468052	     -3.66464349	     -3.83974832	    -40.19200153	      8.65776804	    -13.69892505	     -4.50944062	      4.65980172	      8.59080713	      3.88689320	    -20.40291138	     14.15467275	    -12.53004411	     -2.21367028	     -1.40956914	     -3.79989899	      1.19867390
      1.97533333	      0.91192960	      2.04734861	     -2.36570424	      1.54175310	      1.02204081	      0.23584644	     25.94825134	     -3.58120415	     -3.76442250	    -39.18890946	      8.47085274	    -13.47670281	     -4.43676988	      4.44579411	      8.60043325	      4.14782351	    -20.35053111	     14.22635144	    -12.67969000	     -2.22010701	     -1.42033497	     -3.77014583	      1.06118054
      1.97950000	      0.86263571	      2.03942487	     -2.20047466	      1.54587343	      1.02179018	      0.23570195	     26.27983754	     -3.51782938	     -3.67350232	    -38.17309274	      8.29347105	    -13.22783124	     -4.39537015	      4.20066955	      8.62281338	      4.35710642	    -20.27670938	     14.32683904	    -12.75622293	     -2.22284668	     -1.39822270	     -3.78635513	      0.97611043
      1.98366667	      0.78319464	      2.00786463	     -1.96579741	      1.54995949	      1.02147219	      0.23544685	     26.62024451	     -3.46133217	     -3.65213877	    -37.14670736	      8.11761072	    -13.03282213	     -4.30368175	      4.00678143	      8.63100789	      4.67678057	    -20.24969608	     14.38720470	    -12.94640085	     -2.23519233	     -1.44667130	     -3.74123361	      0.79260221
